<?xml version="1.0" encoding="UTF-8" standalone="no"?>
<!-- Created with Inkscape (http://www.inkscape.org/) -->

<svg
   version="1.1"
   id="svg44"
   width="100"
   height="100.0268"
   viewBox="0 0 100 100.0268"
   sodipodi:docname="ionkom_logo_100_white.svg"
   inkscape:version="1.1 (c4e8f9ed74, 2021-05-24)"
   xmlns:inkscape="http://www.inkscape.org/namespaces/inkscape"
   xmlns:sodipodi="http://sodipodi.sourceforge.net/DTD/sodipodi-0.dtd"
   xmlns="http://www.w3.org/2000/svg"
   xmlns:svg="http://www.w3.org/2000/svg">
  <defs
     id="defs48" />
  <sodipodi:namedview
     id="namedview46"
     pagecolor="#ffffff"
     bordercolor="#666666"
     borderopacity="1.0"
     inkscape:pageshadow="2"
     inkscape:pageopacity="0.0"
     inkscape:pagecheckerboard="0"
     showgrid="false"
     fit-margin-top="0"
     fit-margin-left="0"
     fit-margin-right="0"
     fit-margin-bottom="0"
     inkscape:zoom="7.9999999"
     inkscape:cx="50.3125"
     inkscape:cy="52.125"
     inkscape:window-width="2560"
     inkscape:window-height="1371"
     inkscape:window-x="0"
     inkscape:window-y="32"
     inkscape:window-maximized="1"
     inkscape:current-layer="g50"
     height="1999.9277px"
     scale-x="0.99999998" />
  <g
     inkscape:groupmode="layer"
     inkscape:label="Image"
     id="g50"
     transform="translate(-900.5655,-1004.9859)">
    <g
       id="g536"
       transform="matrix(0.05001521,0,0,0.05001521,903.15076,1002.5673)">
      <path
         style="fill:#94a0ad"
         d="m 882.50556,2047.754 c -2.2,-0.1872 -12.55,-1.0362 -23,-1.8868 -119.43477,-9.7213 -244.46526,-44.6401 -354.5,-99.0056 C 405.28073,1897.5901 319.24199,1835.7987 239.93967,1756.4964 172.00825,1688.565 117.05442,1615.883 73.277042,1536.0684 3.472686,1408.8016 -35.853591,1280.8238 -49.681209,1135.9305 c -2.660657,-27.8798 -2.683543,-148.1988 -0.03329,-175.00002 9.569599,-96.77439 27.855922,-177.1693 59.934717,-263.5 15.762783,-42.42092 36.933585,-88.58212 60.997471,-133 C 146.92664,424.68454 258.92082,302.88732 393.50556,213.93222 537.51845,118.74548 701.34051,62.51601 871.22634,49.961717 c 28.83646,-2.130968 124.16222,-2.140029 153.34426,-0.01458 82.0473,5.975859 157.2917,20.959922 236.935,47.182916 213.8236,70.402567 396.4109,209.206677 520.1327,395.408307 64.402,96.92524 109.0415,197.42805 137.8644,310.39211 13.7885,54.04048 23.9874,115.35713 26.7795,161 1.6202,26.48615 1.6296,142.28493 0.014,169.00003 -3.2551,53.8153 -16.6054,127.3721 -34.3938,189.5 -39.2974,137.251 -103.9593,258.9934 -195.9897,369 -173.4059,207.2772 -422.2752,335.1778 -691.7628,355.5154 -14.653,1.1058 -34.63444,1.44 -78.64404,1.3154 -32.45,-0.092 -60.8,-0.3201 -63,-0.5073 z m 124.50004,-205.7989 c 177.9824,-14.7494 342.0756,-85.5892 475,-205.0596 26.0127,-23.3798 71.2049,-71.4955 84.1716,-89.6165 1.8306,-2.5584 9.2473,-12.4584 16.4815,-22 43.7258,-57.6728 82.0005,-126.8523 108.4466,-196.0115 26.5681,-69.4783 42.7107,-141.3818 49.5786,-220.837 2.3506,-27.194 2.3506,-92.806 0,-120.00002 -11.0113,-127.3896 -46.7567,-239.17602 -110.8804,-346.75554 -33.1805,-55.66647 -69.4413,-102.56652 -115.2772,-149.10048 -41.4591,-42.09049 -79.5734,-73.88818 -125.2652,-104.50534 -114.0421,-76.41741 -242.9814,-121.1503 -384.2555,-133.30978 -26.93974,-2.3187 -87.06031,-2.3187 -114.00004,0 -181.07372,15.58503 -342.40676,84.94643 -475,204.21524 -17.42098,15.67032 -54.18005,53.21871 -68.48534,69.9559 -6.5812,7.7 -14.34971,16.62438 -17.26335,19.83196 -7.78903,8.57482 -29.37958,37.66399 -42.61267,57.4125 -69.89652,104.31067 -114.00205,222.51445 -129.57192,347.25554 -4.33818,34.75616 -5.42601,53.80232 -5.42601,95.00002 0,41.1977 1.08783,60.2438 5.42601,95 15.55796,124.6457 59.71156,243.0278 129.44488,347.0603 49.53775,73.9034 113.48557,141.1217 185.18368,194.6545 122.4411,91.4197 273.42696,147.4374 423.80472,157.237 9.35,0.6093 19.475,1.2701 22.5,1.4684 12.20221,0.8 70.6697,-0.4594 88.00004,-1.8956 z M 597.75556,1390.3504 c -1.65964,-0.9667 -1.75,-14.594 -1.75,-263.9344 0,-258.91304 0.0294,-262.9309 1.93426,-263.95033 1.27893,-0.68447 24.97072,-1.03519 69.92857,-1.03519 60.47968,0 68.16798,0.17367 69.56574,1.57143 1.42057,1.42057 1.57143,26.70996 1.57143,263.42859 0,236.7186 -0.15086,262.008 -1.57143,263.4286 -1.39845,1.3984 -9.07643,1.5681 -69.75,1.541 -44.44546,-0.02 -68.78775,-0.3852 -69.92857,-1.0497 z m 275,0.3908 c -1.66274,-0.4345 -1.75,-19.1463 -1.75,-375.2674 V 640.66374 l 2.25,-0.60297 c 1.2375,-0.33164 32.42649,-0.60913 69.30887,-0.61664 52.09453,-0.0106 67.43697,0.26529 68.75297,1.23635 1.5812,1.1667 1.7106,14.97795 1.9412,207.24948 l 0.247,205.99954 12.462,-15.9995 c 19.2978,-24.7758 147.9445,-175.23977 150.3913,-175.89625 2.8984,-0.77765 161.5366,-0.73937 164.4451,0.0397 1.2642,0.3386 2.1642,1.18938 2,1.89062 -0.1641,0.70124 -42.3734,49.77467 -93.7984,109.05206 -60.1087,69.28707 -93.4904,108.51587 -93.4731,109.84577 0.015,1.1377 46.0272,70.3196 102.25,153.7375 56.2227,83.4179 102.2231,152.1029 102.2231,152.6334 0,0.5304 -1.0125,1.2358 -2.25,1.5674 -2.8713,0.7695 -154.5264,0.7972 -157.3902,0.029 -1.5116,-0.4056 -21.8877,-31.3865 -69.3781,-105.4863 -36.9809,-57.702 -67.755,-104.9124 -68.3869,-104.9124 -0.632,0 -12.0493,10.9336 -25.3719,24.2969 l -24.2229,24.2968 v 80.168 c 0,78.2362 -0.047,80.1929 -1.9343,81.2031 -1.9094,1.0219 -134.46048,1.3534 -138.31574,0.3459 z M 646.97073,797.99501 c -27.08684,-5.63288 -47.61427,-23.37631 -55.60599,-48.06453 -3.46465,-10.70308 -4.34377,-28.37171 -1.99025,-40 5.15021,-25.44611 24.54627,-45.94683 50.65844,-53.54359 9.48364,-2.75905 33.29196,-3.81543 44.79351,-1.98749 9.84282,1.5643 23.10188,6.52811 30.39608,11.37941 8.72652,5.80391 19.8039,18.1649 24.01118,26.79346 5.70386,11.6979 7.16872,18.49883 7.18508,33.35821 0.0169,15.31564 -1.44589,21.96508 -7.58934,34.5 -5.63287,11.49315 -17.67636,23.68857 -29.35125,29.7215 -13.29339,6.86929 -20.4287,8.47138 -39.47263,8.86283 -11.26095,0.23147 -18.57493,-0.0923 -23.03483,-1.0198 z"
         id="path550" />
      <path
         style="fill:#4184f2"
         d="m 879.00556,2047.3477 c -4.125,-0.4134 -8.85,-0.9951 -10.5,-1.2927 -1.65,-0.2977 -8.85,-1.0445 -16,-1.6596 -45.84938,-3.9446 -103.96769,-13.9411 -151,-25.9723 -229.57769,-58.7279 -428.87343,-194.7049 -566.92941,-386.809 -21.91322,-30.4921 -52.843608,-79.3085 -51.865448,-81.8576 0.41877,-1.0913 22.069358,-1.326 122.320058,-1.326 66.99617,0 122.5435,0.281 123.4385,0.6244 0.895,0.3435 8.23509,8.331 16.3113,17.75 16.79903,19.5923 50.84797,54.5551 69.225,71.0831 114.74214,103.1971 253.69138,170.5399 404.47193,196.0304 48.46869,8.194 80.2809,10.8616 129.52807,10.8616 68.26344,0 123.63324,-6.9982 193.50004,-24.4564 124.9597,-31.2248 242.2394,-94.0617 340.5,-182.4356 27.1671,-24.4337 68.2379,-68.1643 86.3642,-91.9575 30.7762,-40.3979 47.1149,-64.089 64.8277,-94 55.6128,-93.9118 91.0775,-198.029 104.7414,-307.5 4.3725,-35.0313 5.4305,-53.7351 5.4305,-96 0,-42.2649 -1.058,-60.96872 -5.4305,-96.00002 -17.1689,-137.55214 -69.783,-268.77274 -151.2837,-377.30472 -27.8748,-37.11991 -42.9193,-54.80468 -70.6496,-83.048 -91.5872,-93.28166 -199.4222,-160.05496 -324.5,-200.93602 -157.6048,-51.51236 -329.39521,-51.51236 -487.00004,0 -109.76962,35.87766 -204.96236,91.01093 -291.5,168.82955 -26.62728,23.94448 -66.30299,66.25147 -84.36418,89.95919 -30.77621,40.39789 -47.11493,64.08899 -64.82769,94 -62.58729,105.68931 -98.59099,219.30645 -109.48416,345.5 -2.34046,27.11342 -2.34046,90.88662 0,118.00002 10.98826,127.2952 47.20895,240.8928 110.88211,347.7555 16.95546,28.4564 41.55852,64.2664 58.45806,85.0862 2.38472,2.9379 4.33586,5.7504 4.33586,6.25 0,0.5395 -50.44232,0.908 -124.25,0.9076 l -124.249998,-7e-4 -10.21428,-18.7493 c -60.23187,-110.5615 -99.220128,-231.1984 -114.759633,-355.0874 -5.837801,-46.542 -6.026087,-50.4527 -6.026087,-125.1619 0,-74.70918 0.188286,-78.61987 6.026087,-125.16188 17.43031,-138.96358 65.049638,-275.74009 136.594203,-392.33814 44.683208,-72.8214 90.845798,-131.5751 149.325208,-190.0545 23.95865,-23.95866 43.66512,-42.0303 67.0545,-61.49171 C 455.22161,156.47533 634.51295,78.701652 824.8437,54.971347 c 47.84193,-5.964898 49.42615,-6.041814 124.16186,-6.028223 68.64394,0.01248 69.80804,0.04593 94.50004,2.715043 127.3309,13.763979 238.6427,45.515976 346.5,98.840113 100.6688,49.77015 186.4825,111.28475 265.565,190.36723 58.7628,58.76279 109.1656,123.07102 149.3589,190.56497 5.0767,8.525 9.6362,16.17501 10.1322,17 13.6447,22.69504 40.0652,75.40505 53.1318,106 42.0647,98.49319 66.3418,194.78602 77.526,307.5 2.6581,26.78795 2.6387,146.30602 -0.028,173.50002 -10.9457,111.6137 -35.5443,208.8441 -77.9219,308 -9.8606,23.0722 -35.6988,75.558 -45.9813,93.4034 -3.4554,5.9969 -7.5333,13.1203 -9.062,15.8297 -12.1506,21.5359 -36.7347,59.0201 -56.5214,86.18 -120.0316,164.7591 -291.0808,290.8019 -483.1992,356.0602 -84.9726,28.8633 -152.1621,42.6121 -256.5,52.487 -10.9944,1.0406 -127.04903,1.0042 -137.50004,-0.043 z m -281,-920.9172 V 863.43048 h 69.5 69.5 v 263.00002 263 h -69.5 -69.5 z m 274.46275,261.75 c -0.26096,-0.6875 -0.35933,-168.875 -0.21861,-373.75 l 0.25586,-372.50002 69.24762,-0.25684 69.24762,-0.25685 0.2524,206.74316 c 0.2233,182.86845 0.4256,206.77085 1.7524,206.98245 0.9031,0.1441 6.6445,-6.4168 14.4273,-16.4863 7.11,-9.1991 43.335,-52.38634 80.5,-95.97166 l 67.5727,-79.24604 82.8333,-0.004 c 48.1433,-0.002 82.6938,0.36974 82.5,0.88837 -0.1833,0.49078 -42.4083,49.39417 -93.8333,108.67419 -61.1631,70.50564 -93.4824,108.49974 -93.4492,109.85764 0.028,1.1417 45.8719,70.0258 101.8755,153.0758 56.0036,83.05 102.0414,151.5625 102.3062,152.25 0.3827,0.9935 -15.7539,1.25 -78.6461,1.25 h -79.1276 l -2.9668,-4.25 c -1.6317,-2.3375 -31.9347,-49.4574 -67.34,-104.7108 -35.4053,-55.2535 -65.117,-100.9285 -66.0259,-101.5 -1.3752,-0.8648 -5.9302,3.2474 -27.1393,24.5007 l -25.4868,25.5399 v 80.2101 80.2101 h -69.03142 c -54.30539,0 -69.13261,-0.2667 -69.50587,-1.25 z M 653.68419,797.37478 c -17.91855,-2.08268 -31.57433,-8.69215 -44.17863,-21.38271 -10.07984,-10.14882 -14.19039,-17.22608 -17.60129,-30.30467 -2.59984,-9.96871 -2.81793,-27.7159 -0.46365,-37.72928 3.3257,-14.14508 12.19305,-28.23727 23.32313,-37.06565 23.67052,-18.77544 65.61639,-21.71597 94.74181,-6.64171 10.68812,5.53179 23.05321,18.29386 28.30839,29.21719 5.63603,11.71499 7.59576,22.16249 6.92243,36.90407 -0.60309,13.20388 -2.90311,21.90504 -8.47417,32.05846 -4.25816,7.76064 -16.38351,20.04772 -24.53798,24.86526 -15.07505,8.90616 -36.34793,12.60033 -58.04004,10.07904 z"
         id="path548" />
      <path
         style="fill:#f2b301"
         d="m 144.33302,1548.6806 c 34.00511,-0.146 89.35511,-0.1459 123,10e-5 33.6449,0.146 5.82254,0.2654 -61.82746,0.2654 -67.65,0 -95.17764,-0.1195 -61.17254,-0.2655 z m 1424.20958,-2.9962 c 0.9747,-1.5146 3.4357,-4.7789 5.4688,-7.2539 7.6237,-9.2805 24.5439,-32.6207 35.5353,-49.0184 69.161,-103.1786 112.8699,-220.6215 128.3922,-344.9816 4.3725,-35.0313 5.4305,-53.7351 5.4305,-96 0,-42.2649 -1.058,-60.96872 -5.4305,-96.00002 -17.1689,-137.55214 -69.783,-268.77274 -151.2837,-377.30472 -27.8748,-37.11991 -42.9193,-54.80469 -70.6496,-83.048 -91.5872,-93.28166 -199.4222,-160.05496 -324.5,-200.93603 -180.2906,-58.92708 -377.60936,-50.13665 -553.26597,24.64771 -82.6296,35.17887 -156.86059,82.69727 -225.23407,144.18185 -26.62728,23.94447 -66.30299,66.25147 -84.36418,89.95919 -30.77621,40.39789 -47.11493,64.08899 -64.82769,94 -62.58729,105.68931 -98.59099,219.30645 -109.48416,345.5 -2.34046,27.11342 -2.34046,90.88662 0,118.00002 10.98826,127.2952 47.20895,240.8928 110.88211,347.7555 16.95546,28.4564 41.55852,64.2664 58.45806,85.0862 2.38472,2.9379 4.33586,5.7504 4.33586,6.25 0,0.5395 -50.44232,0.908 -124.25,0.9076 l -124.249998,-7e-4 -10.21428,-18.7493 c -60.23187,-110.5615 -99.220128,-231.1984 -114.759633,-355.0874 -5.837801,-46.542 -6.026087,-50.4527 -6.026087,-125.1619 0,-74.70918 0.188286,-78.61987 6.026087,-125.16188 17.43031,-138.96358 65.049638,-275.74009 136.594203,-392.33814 44.683208,-72.8214 90.845798,-131.5751 149.325208,-190.0545 23.95865,-23.95866 43.66512,-42.0303 67.0545,-61.49171 C 455.22161,156.47533 634.51295,78.701652 824.8437,54.971347 c 47.84193,-5.964898 49.42615,-6.041814 124.16186,-6.028223 68.64394,0.01248 69.80804,0.04593 94.50004,2.715043 127.3309,13.763979 238.6427,45.515976 346.5,98.840113 100.6688,49.77015 186.4825,111.28475 265.565,190.36723 58.7628,58.76279 109.1656,123.07102 149.3589,190.56497 5.0767,8.525 9.6362,16.17501 10.1322,17 13.6447,22.69504 40.0652,75.40505 53.1318,106 42.0647,98.49319 66.3418,194.78602 77.526,307.5 2.6581,26.78795 2.6387,146.30602 -0.028,173.50002 -10.9449,111.6056 -35.5108,208.7144 -77.9158,308 -9.5827,22.4367 -36.5611,77.2547 -46.5075,94.5 l -5.7677,10 -124.365,0.2539 -124.365,0.2539 1.7722,-2.7539 z M 598.00556,1126.4305 V 863.43048 h 69.5 69.5 v 263.00002 263 h -69.5 -69.5 z m 274.46275,261.75 c -0.26096,-0.6875 -0.35933,-168.875 -0.21861,-373.75 l 0.25586,-372.50002 69.24762,-0.25684 69.24762,-0.25685 0.2524,206.74316 c 0.2233,182.86845 0.4256,206.77085 1.7524,206.98245 0.9031,0.1441 6.6445,-6.4168 14.4273,-16.4863 7.11,-9.1991 43.335,-52.38634 80.5,-95.97166 l 67.5727,-79.24604 82.8333,-0.004 c 48.1433,-0.002 82.6938,0.36974 82.5,0.88837 -0.1833,0.49078 -42.4083,49.39417 -93.8333,108.67419 -61.1631,70.50564 -93.4824,108.49974 -93.4492,109.85764 0.028,1.1417 45.8719,70.0258 101.8755,153.0758 56.0036,83.05 102.0414,151.5625 102.3062,152.25 0.3827,0.9935 -15.7539,1.25 -78.6461,1.25 h -79.1276 l -2.9668,-4.25 c -1.6317,-2.3375 -31.9347,-49.4574 -67.34,-104.7108 -35.4053,-55.2535 -65.117,-100.9285 -66.0259,-101.5 -1.3752,-0.8648 -5.9302,3.2474 -27.1393,24.5007 l -25.4868,25.5399 v 80.2101 80.2101 h -69.03142 c -54.30539,0 -69.13261,-0.2667 -69.50587,-1.25 z M 653.68419,797.37478 c -17.91855,-2.08268 -31.57433,-8.69215 -44.17863,-21.38271 -10.07984,-10.14882 -14.19039,-17.22608 -17.60129,-30.30467 -2.59984,-9.96871 -2.81793,-27.7159 -0.46365,-37.72928 3.3257,-14.14508 12.19305,-28.23727 23.32313,-37.06565 23.67052,-18.77544 65.61639,-21.71597 94.74181,-6.64171 10.68812,5.53179 23.05321,18.29386 28.30839,29.21719 5.63603,11.71499 7.59576,22.16249 6.92243,36.90407 -0.60309,13.20388 -2.90311,21.90504 -8.47417,32.05846 -4.25816,7.76064 -16.38351,20.04772 -24.53798,24.86526 -15.07505,8.90616 -36.34793,12.60033 -58.04004,10.07904 z"
         id="path546" />
      <path
         style="fill:#6e9093"
         d="m 144.33302,1548.6806 c 34.00511,-0.146 89.35511,-0.1459 123,10e-5 33.6449,0.146 5.82254,0.2654 -61.82746,0.2654 -67.65,0 -95.17764,-0.1195 -61.17254,-0.2655 z m 1424.20958,-2.9962 c 0.9747,-1.5146 3.4357,-4.7789 5.4688,-7.2539 7.6237,-9.2805 24.5439,-32.6207 35.5353,-49.0184 69.161,-103.1786 112.8699,-220.6215 128.3922,-344.9816 4.3725,-35.0313 5.4305,-53.7351 5.4305,-96 0,-42.2649 -1.058,-60.96872 -5.4305,-96.00002 -17.1689,-137.55214 -69.783,-268.77274 -151.2837,-377.30472 -27.8748,-37.11991 -42.9193,-54.80469 -70.6496,-83.048 C 1424.4184,398.7961 1316.5834,332.0228 1191.5056,291.14173 976.08966,220.73409 739.84494,247.34344 542.50556,364.24165 465.41575,409.90744 391.06644,473.47354 335.5512,541.18048 l -5.94453,7.25 H 205.80612 c -92.13605,0 -123.800558,-0.29211 -123.800558,-1.1421 0,-1.74385 16.71565,-28.99884 31.498118,-51.3579 C 166.70085,415.46771 233.30488,341.12385 307.50556,279.38427 455.22161,156.47533 634.51295,78.701652 824.8437,54.971347 c 47.84193,-5.964898 49.42615,-6.041814 124.16186,-6.028223 68.64394,0.01248 69.80804,0.04593 94.50004,2.715043 127.3309,13.763979 238.6427,45.515976 346.5,98.840113 100.6688,49.77015 186.4825,111.28475 265.565,190.36723 58.7628,58.76279 109.1656,123.07102 149.3589,190.56497 5.0767,8.525 9.6362,16.17501 10.1322,17 13.6447,22.69504 40.0652,75.40505 53.1318,106 42.0647,98.49319 66.3418,194.78602 77.526,307.5 2.6581,26.78795 2.6387,146.30602 -0.028,173.50002 -10.9449,111.6056 -35.5108,208.7144 -77.9158,308 -9.5827,22.4367 -36.5611,77.2547 -46.5075,94.5 l -5.7677,10 -124.365,0.2539 -124.365,0.2539 1.7722,-2.7539 z M 598.00556,1126.4305 V 863.43048 h 69.5 69.5 v 263.00002 263 h -69.5 -69.5 z m 274.46275,261.75 c -0.26096,-0.6875 -0.35933,-168.875 -0.21861,-373.75 l 0.25586,-372.50002 69.24762,-0.25684 69.24762,-0.25685 0.2524,206.74316 c 0.2233,182.86845 0.4256,206.77085 1.7524,206.98245 0.9031,0.1441 6.6445,-6.4168 14.4273,-16.4863 7.11,-9.1991 43.335,-52.38634 80.5,-95.97166 l 67.5727,-79.24604 82.8333,-0.004 c 48.1433,-0.002 82.6938,0.36974 82.5,0.88837 -0.1833,0.49078 -42.4083,49.39417 -93.8333,108.67419 -61.1631,70.50564 -93.4824,108.49974 -93.4492,109.85764 0.028,1.1417 45.8719,70.0258 101.8755,153.0758 56.0036,83.05 102.0414,151.5625 102.3062,152.25 0.3827,0.9935 -15.7539,1.25 -78.6461,1.25 h -79.1276 l -2.9668,-4.25 c -1.6317,-2.3375 -31.9347,-49.4574 -67.34,-104.7108 -35.4053,-55.2535 -65.117,-100.9285 -66.0259,-101.5 -1.3752,-0.8648 -5.9302,3.2474 -27.1393,24.5007 l -25.4868,25.5399 v 80.2101 80.2101 h -69.03142 c -54.30539,0 -69.13261,-0.2667 -69.50587,-1.25 z M 653.68419,797.37478 c -17.91855,-2.08268 -31.57433,-8.69215 -44.17863,-21.38271 -10.07984,-10.14882 -14.19039,-17.22608 -17.60129,-30.30467 -2.59984,-9.96871 -2.81793,-27.7159 -0.46365,-37.72928 3.3257,-14.14508 12.19305,-28.23727 23.32313,-37.06565 23.67052,-18.77544 65.61639,-21.71597 94.74181,-6.64171 10.68812,5.53179 23.05321,18.29386 28.30839,29.21719 5.63603,11.71499 7.59576,22.16249 6.92243,36.90407 -0.60309,13.20388 -2.90311,21.90504 -8.47417,32.05846 -4.25816,7.76064 -16.38351,20.04772 -24.53798,24.86526 -15.07505,8.90616 -36.34793,12.60033 -58.04004,10.07904 z"
         id="path544" />
      <path
         style="fill:#65778a"
         d="m 1569.0153,1547.1805 c 0.01,-0.6875 1.6442,-3.275 3.6419,-5.75 18.2184,-22.5713 41.4553,-56.2418 58.1903,-84.318 57.9737,-97.2628 94.2006,-202.3933 108.0914,-313.682 4.3382,-34.7562 5.426,-53.8023 5.426,-95 0,-51.3621 -2.5649,-82.39408 -10.8714,-131.52809 -18.5771,-109.88675 -61.8022,-218.29156 -124.0315,-311.06048 -12.6569,-18.86836 -37.7543,-52.61624 -43.4689,-58.4515 -1.3681,-1.39702 -8.5625,-9.71605 -15.9875,-18.48672 -15.5594,-18.37933 -48.8047,-52.5868 -67,-68.93911 -86.6684,-77.88981 -181.7305,-132.94525 -291.5,-168.82287 C 976.08966,220.73409 739.84494,247.34344 542.50556,364.24165 465.41575,409.90744 391.06644,473.47354 335.5512,541.18048 l -5.94453,7.25 H 205.80612 c -92.13605,0 -123.800558,-0.29211 -123.800558,-1.1421 0,-1.74385 16.71565,-28.99884 31.498118,-51.3579 C 166.70085,415.46771 233.30488,341.12385 307.50556,279.38427 455.22161,156.47533 634.51295,78.701652 824.8437,54.971347 c 47.84193,-5.964898 49.42615,-6.041814 124.16186,-6.028223 68.64394,0.01248 69.80804,0.04593 94.50004,2.715043 169.1578,18.285307 317.0671,70.495393 454.1001,160.291523 101.5219,66.52613 192.129,153.52665 263.8997,253.39509 20.4029,28.39049 52.5002,78.75838 52.5002,82.38459 0,0.8707 0.4306,1.84924 0.957,2.17453 1.7802,1.10023 19.959,35.08488 32.4316,60.62978 41.9294,85.87508 71.3295,177.64112 87.0475,271.70038 4.2552,25.4637 7.9736,54.15651 9.6801,74.69642 0.6854,8.25 1.7272,15.32109 2.315,15.71353 1.5035,1.0037 1.5035,150.56929 0,151.57299 -0.5878,0.3924 -1.6236,7.4635 -2.3017,15.7135 -0.6781,8.25 -2.3396,23.6628 -3.6922,34.2507 -14.0156,109.7058 -45.2595,214.376 -93.3553,312.7493 -12.6055,25.7828 -28.9252,56.385 -31.8637,59.75 -1.4399,1.6488 -8.6031,1.75 -123.8733,1.75 -97.2145,0 -122.343,-0.2568 -122.3353,-1.25 z m -971.00974,-420.75 V 864.43048 h 69 69 v 262.00002 262 h -69 -69 z m 275,-111 V 642.43048 h 68.5 68.50004 l 0.015,205.75 c 0.01,113.1625 0.3999,206.35682 0.8698,207.09842 0.47,0.7416 1.5656,1.1916 2.4347,1 0.8691,-0.1916 7.573,-8.0524 14.8975,-17.4685 7.3245,-9.416 43.4595,-52.49416 80.3,-95.72922 l 66.9827,-78.60921 82.4371,-0.0207 82.4371,-0.0207 -2.557,2.75 c -2.0918,2.24961 -140.9438,162.30703 -176.1916,203.09953 -6.2518,7.2352 -9.64,11.9478 -9.3466,13 0.2531,0.9078 45.6654,68.7005 100.9161,150.6505 55.2508,81.95 101.2612,150.2375 102.2454,151.75 l 1.7895,2.75 -78.865,-0.045 -78.865,-0.045 -67,-104.6175 c -36.85,-57.5396 -67.7882,-105.1048 -68.7516,-105.7004 -1.501,-0.928 -5.4374,2.6026 -27.5,24.665 l -25.7484,25.7481 -0.2675,79.9978 -0.2676,79.9979 h -68.48247 l -68.48217,-10e-4 z M 648.84004,795.92948 c -16.8361,-3.19037 -29.16367,-9.84951 -40.6829,-21.97627 -14.82691,-15.60888 -20.85113,-37.76057 -16.73129,-61.52273 2.49374,-14.38323 8.39265,-25.81294 18.57971,-36 6.48007,-6.48006 9.59622,-8.7192 17.20658,-12.36389 12.00164,-5.74774 19.52442,-7.56862 34.35251,-8.31501 27.86379,-1.40256 49.01931,5.94549 64.55958,22.42378 12.34346,13.08852 17.88133,28.03318 17.88133,48.25512 0,21.46109 -5.55458,35.56974 -19.54286,49.63892 -6.68498,6.72364 -9.73233,8.93455 -17.52463,12.71446 -5.18788,2.51656 -12.35751,5.29545 -15.93251,6.17534 -9.24042,2.27428 -32.46388,2.80867 -42.16552,0.97028 z"
         id="path542" />
      <path
         style="fill:#da4336"
         d="m 1569.0153,1547.1805 c 0.01,-0.6875 1.6442,-3.275 3.6419,-5.75 18.2184,-22.5713 41.4553,-56.2418 58.1903,-84.318 57.9737,-97.2628 94.2006,-202.3933 108.0914,-313.682 4.3382,-34.7562 5.426,-53.8023 5.426,-95 0,-41.1977 -1.0878,-60.24386 -5.426,-95.00002 -13.8908,-111.28866 -50.1177,-216.41923 -108.0914,-313.68196 -16.735,-28.07627 -39.9719,-61.74672 -58.1903,-84.31804 -1.9977,-2.475 -3.6366,-4.83926 -3.6419,-5.25393 -0.01,-0.41467 55.4474,-0.63967 123.2283,-0.5 l 123.2379,0.25393 6.7982,12 c 11.3604,20.05326 34.7329,67.67065 44.912,91.5 31.6152,74.01194 54.2549,151.03857 67.25,228.80358 4.2552,25.4637 7.9736,54.15651 9.6801,74.69642 0.6854,8.25 1.7272,15.32109 2.315,15.71353 1.5035,1.0037 1.5035,150.56929 0,151.57299 -0.5878,0.3924 -1.6236,7.4635 -2.3017,15.7135 -0.6781,8.25 -2.3396,23.6628 -3.6922,34.2507 -14.0156,109.7058 -45.2595,214.376 -93.3553,312.7493 -12.6055,25.7828 -28.9252,56.385 -31.8637,59.75 -1.4399,1.6488 -8.6031,1.75 -123.8733,1.75 -97.2145,0 -122.343,-0.2568 -122.3353,-1.25 z M 82.005562,547.28838 c 0,-1.74385 16.71565,-28.99884 31.498118,-51.3579 C 166.70085,415.46771 233.30488,341.12385 307.50556,279.38427 455.22161,156.47533 634.51295,78.701652 824.8437,54.971347 c 47.84193,-5.964898 49.42615,-6.041814 124.16186,-6.028223 68.64394,0.01248 69.80804,0.04593 94.50004,2.715043 169.1578,18.285307 317.0671,70.495393 454.1001,160.291523 101.5219,66.52613 192.129,153.52665 263.8997,253.39509 21.6498,30.12552 53.2755,80.02215 52.014,82.06345 -0.4249,0.6874 -41.0029,1.02225 -123.8734,1.02225 h -123.2415 l -5.9445,-7.25 c -20.5587,-25.07354 -53.6019,-59.71151 -77.4544,-81.19254 -86.2143,-77.64271 -181.7298,-132.96836 -291.5,-168.84621 C 976.08966,220.73409 739.84494,247.34344 542.50556,364.24165 465.41575,409.90744 391.06644,473.47354 335.5512,541.18048 l -5.94453,7.25 H 205.80612 c -92.13605,0 -123.800558,-0.29211 -123.800558,-1.1421 z"
         id="path540" />
      <path
         style="fill:#0e9c57"
         d="m 1569.0153,1547.1805 c 0.01,-0.6875 1.6442,-3.275 3.6419,-5.75 18.2184,-22.5713 41.4553,-56.2418 58.1903,-84.318 57.9737,-97.2628 94.2006,-202.3933 108.0914,-313.682 4.3382,-34.7562 5.426,-53.8023 5.426,-95 0,-41.1977 -1.0878,-60.24386 -5.426,-95.00002 -13.8908,-111.28866 -50.1177,-216.41923 -108.0914,-313.68196 -16.735,-28.07627 -39.9719,-61.74672 -58.1903,-84.31804 -1.9977,-2.475 -3.6366,-4.83926 -3.6419,-5.25393 -0.01,-0.41467 55.4474,-0.63967 123.2283,-0.5 l 123.2379,0.25393 6.7982,12 c 11.3604,20.05326 34.7329,67.67065 44.912,91.5 31.6152,74.01194 54.2549,151.03857 67.25,228.80358 4.2552,25.4637 7.9736,54.15651 9.6801,74.69642 0.6854,8.25 1.7272,15.32109 2.315,15.71353 1.5035,1.0037 1.5035,150.56929 0,151.57299 -0.5878,0.3924 -1.6236,7.4635 -2.3017,15.7135 -0.6781,8.25 -2.3396,23.6628 -3.6922,34.2507 -14.0156,109.7058 -45.2595,214.376 -93.3553,312.7493 -12.6055,25.7828 -28.9252,56.385 -31.8637,59.75 -1.4399,1.6488 -8.6031,1.75 -123.8733,1.75 -97.2145,0 -122.343,-0.2568 -122.3353,-1.25 z"
         id="path538" />
    </g>
    <path
       style="fill:#ffffff;stroke-width:0.176777"
       d="M 32.526912,53.916893 V 40.835417 h 3.358757 3.358758 v 13.081476 13.081475 h -3.358758 -3.358757 z"
       id="path88"
       transform="translate(900.5655,1004.9859)" />
    <path
       style="fill:#ffffff;stroke-width:0.176777"
       d="m 34.206291,37.052311 c -2.182134,-0.961734 -2.704269,-3.869973 -1.011999,-5.636735 0.958722,-1.000924 3.234689,-1.263065 4.744755,-0.546492 1.356607,0.643752 2.103626,2.456026 1.662223,4.032563 -0.237359,0.847765 -1.197865,1.907699 -2.003536,2.210934 -0.688464,0.259122 -2.749878,0.222488 -3.391443,-0.06027 z"
       id="path127"
       transform="translate(900.5655,1004.9859)" />
    <path
       style="fill:#ffffff;stroke-width:0.176777"
       d="M 46.315495,48.348427 V 29.698485 h 3.358757 3.358757 v 10.341437 c 0,6.246189 0.065,10.341437 0.164152,10.341437 0.09028,0 1.979584,-2.147673 4.198446,-4.772604 l 4.034295,-4.772604 4.03916,-3.67e-4 4.039162,-3.67e-4 -0.94557,1.087609 c -6.077629,6.990596 -8.42231,9.790382 -8.331404,9.948541 0.0598,0.104043 2.36607,3.550137 5.125039,7.657986 l 5.016311,7.468815 h -3.864704 -3.864705 l -3.409338,-5.313992 c -3.896386,-6.073134 -3.202982,-5.575939 -5.181524,-3.715328 l -1.01932,0.958564 v 4.035377 4.035379 h -3.358757 -3.358757 z"
       id="path166"
       transform="translate(900.5655,1004.9859)" />
  </g>
</svg>
